<svg version="1.1" id="Capa_1" xmlns="http://www.w3.org/2000/svg" xmlns:xlink="http://www.w3.org/1999/xlink" x="0px" y="0px"
 viewBox="0 0 512 512" style="enable-background:new 0 0 512 512;" xml:space="preserve">
<g>
<path d="M504.981,150.787c-6.048-5.163-14.583-6.251-21.736-2.769l-109.444,53.28L271.109,82.896
C267.311,78.516,261.798,76,256,76c-5.798,0-11.31,2.516-15.109,6.896L138.199,201.297l-109.444-53.28
c-7.153-3.481-15.687-2.394-21.737,2.769c-6.05,5.163-8.466,13.421-6.153,21.031l76,250C79.426,430.242,87.195,436,96,436h320
c8.804,0,16.574-5.758,19.134-14.182l76-250C513.448,164.208,511.032,155.95,504.981,150.787z M401.175,396H110.823
L52.472,204.052l82.022,39.931c8.144,3.964,17.93,1.962,23.863-4.878L256,126.525l97.644,112.58
c5.932,6.841,15.721,8.841,23.862,4.878l82.022-39.931L401.175,396z"/>
</g>
</svg>
